<svg width="1345" height="581" viewBox="0 0 1345 581" fill="none" xmlns="http://www.w3.org/2000/svg">
<path d="M1311.18 320.795V191.818H1344.7V410H1311.18V373.068H1308.91C1303.8 384.148 1295.84 393.57 1285.05 401.335C1274.25 409.006 1260.61 412.841 1244.14 412.841C1230.5 412.841 1218.38 409.858 1207.77 403.892C1197.17 397.831 1188.83 388.741 1182.77 376.619C1176.71 364.403 1173.68 349.015 1173.68 330.455V191.818H1207.2V328.182C1207.2 344.091 1211.66 356.78 1220.56 366.25C1229.55 375.72 1241.01 380.455 1254.93 380.455C1263.27 380.455 1271.74 378.324 1280.36 374.062C1289.07 369.801 1296.36 363.267 1302.23 354.46C1308.2 345.653 1311.18 334.432 1311.18 320.795Z" fill="white"/>
<mask id="path-2-inside-1_0_1" fill="white">
<path d="M958.484 523.626C945.75 523.626 933.172 517.998 922.234 507.376C910.594 494.939 904.031 477.418 904.031 459.353V452.998C904.031 452.817 904.031 447.824 905.75 441.923C907.078 436.748 909.734 431.665 912.859 425.855C915.516 420.771 918.641 415.052 921.453 407.971C924.969 399.71 926.219 394.263 927 390.904C927.234 389.815 927.391 388.998 927.625 388.362C929.031 382.643 929.031 377.468 929.031 374.019C929.031 362.853 926.766 352.413 922.391 342.971C919.656 337.706 918.094 331.624 918.094 325.905C918.094 314.194 923.719 303.028 932.781 296.673C937.391 292.316 943.562 289.864 949.891 289.864H972.703V145.341C972.703 143.434 974.031 141.891 975.672 141.891H997.547C999.187 141.891 1000.52 143.434 1000.52 145.341V289.864H1022.63C1028.72 289.864 1034.66 292.134 1040.67 296.764C1049.89 303.209 1055.28 313.831 1055.28 325.905C1055.28 333.258 1053.33 340.339 1049.97 345.241C1048.17 349.508 1046.69 354.591 1045.05 362.126C1044.34 367.028 1044.34 371.386 1044.34 374.926C1044.34 377.559 1044.34 381.917 1045.13 388.09L1045.44 389.088C1045.83 390.45 1046.3 392.447 1047.08 394.808C1048.8 400.345 1050.52 404.703 1051.92 407.88C1054.97 414.961 1057.63 419.591 1059.97 423.767C1063.17 429.395 1065.91 434.207 1067.78 442.105C1068.64 445.554 1069.19 449.095 1069.42 452.635L1070.28 460.624C1069.97 467.705 1067.78 490.4 1051.3 507.285C1038.17 520.721 1023.48 523.263 1015.91 523.535H958.484V523.626ZM949.891 296.673C943.172 296.673 938.328 300.214 936.062 302.301C928.406 307.658 923.875 316.645 923.875 325.995C923.875 330.444 925.125 335.346 927.391 339.703C932.312 350.234 934.812 361.763 934.812 374.109C934.812 377.922 934.812 383.641 933.172 390.45C933.016 391.176 932.859 391.812 932.625 392.72C931.844 396.26 930.516 402.252 926.687 411.057C923.719 418.411 920.594 424.311 917.781 429.577C914.734 435.296 912.391 439.744 911.219 444.102C909.812 449.004 909.812 453.089 909.812 453.089V459.444C909.812 475.603 915.75 491.217 926.062 502.292C935.828 511.734 947.078 516.817 958.484 516.817H1015.52C1022.23 516.545 1035.44 514.276 1047.16 502.202C1061.92 487.041 1063.95 466.706 1064.19 460.896L1063.41 453.452V453.361C1063.17 450.275 1062.7 447.098 1061.92 444.011C1060.28 437.202 1058.02 433.208 1054.89 427.67C1052.47 423.404 1049.66 418.501 1046.53 411.057C1045.13 407.698 1043.25 403.069 1041.45 397.168C1040.67 394.626 1040.13 392.629 1039.73 391.176L1039.34 389.724C1038.41 382.552 1038.41 377.831 1038.41 375.017C1038.41 371.204 1038.41 366.575 1039.27 360.855C1041.06 352.594 1042.7 347.147 1045.05 341.701C1047.94 337.343 1049.42 331.896 1049.42 325.995C1049.42 316.191 1045.2 307.93 1037.55 302.574C1032.39 298.579 1027.55 296.673 1022.63 296.673H997.625C995.984 296.673 994.656 295.13 994.656 293.223V148.7H978.641V293.223C978.641 295.13 977.312 296.673 975.672 296.673H949.891Z"/>
</mask>
<path d="M958.484 523.626C945.75 523.626 933.172 517.998 922.234 507.376C910.594 494.939 904.031 477.418 904.031 459.353V452.998C904.031 452.817 904.031 447.824 905.75 441.923C907.078 436.748 909.734 431.665 912.859 425.855C915.516 420.771 918.641 415.052 921.453 407.971C924.969 399.71 926.219 394.263 927 390.904C927.234 389.815 927.391 388.998 927.625 388.362C929.031 382.643 929.031 377.468 929.031 374.019C929.031 362.853 926.766 352.413 922.391 342.971C919.656 337.706 918.094 331.624 918.094 325.905C918.094 314.194 923.719 303.028 932.781 296.673C937.391 292.316 943.562 289.864 949.891 289.864H972.703V145.341C972.703 143.434 974.031 141.891 975.672 141.891H997.547C999.187 141.891 1000.52 143.434 1000.52 145.341V289.864H1022.63C1028.72 289.864 1034.66 292.134 1040.67 296.764C1049.89 303.209 1055.28 313.831 1055.28 325.905C1055.28 333.258 1053.33 340.339 1049.97 345.241C1048.17 349.508 1046.69 354.591 1045.05 362.126C1044.34 367.028 1044.34 371.386 1044.34 374.926C1044.34 377.559 1044.34 381.917 1045.13 388.09L1045.44 389.088C1045.83 390.45 1046.3 392.447 1047.08 394.808C1048.8 400.345 1050.52 404.703 1051.92 407.88C1054.97 414.961 1057.63 419.591 1059.97 423.767C1063.17 429.395 1065.91 434.207 1067.78 442.105C1068.64 445.554 1069.19 449.095 1069.42 452.635L1070.28 460.624C1069.97 467.705 1067.78 490.4 1051.3 507.285C1038.17 520.721 1023.48 523.263 1015.91 523.535H958.484V523.626ZM949.891 296.673C943.172 296.673 938.328 300.214 936.062 302.301C928.406 307.658 923.875 316.645 923.875 325.995C923.875 330.444 925.125 335.346 927.391 339.703C932.312 350.234 934.812 361.763 934.812 374.109C934.812 377.922 934.812 383.641 933.172 390.45C933.016 391.176 932.859 391.812 932.625 392.72C931.844 396.26 930.516 402.252 926.687 411.057C923.719 418.411 920.594 424.311 917.781 429.577C914.734 435.296 912.391 439.744 911.219 444.102C909.812 449.004 909.812 453.089 909.812 453.089V459.444C909.812 475.603 915.75 491.217 926.062 502.292C935.828 511.734 947.078 516.817 958.484 516.817H1015.52C1022.23 516.545 1035.44 514.276 1047.16 502.202C1061.92 487.041 1063.95 466.706 1064.19 460.896L1063.41 453.452V453.361C1063.17 450.275 1062.7 447.098 1061.92 444.011C1060.28 437.202 1058.02 433.208 1054.89 427.67C1052.47 423.404 1049.66 418.501 1046.53 411.057C1045.13 407.698 1043.25 403.069 1041.45 397.168C1040.67 394.626 1040.13 392.629 1039.73 391.176L1039.34 389.724C1038.41 382.552 1038.41 377.831 1038.41 375.017C1038.41 371.204 1038.41 366.575 1039.27 360.855C1041.06 352.594 1042.7 347.147 1045.05 341.701C1047.94 337.343 1049.42 331.896 1049.42 325.995C1049.42 316.191 1045.2 307.93 1037.55 302.574C1032.39 298.579 1027.55 296.673 1022.63 296.673H997.625C995.984 296.673 994.656 295.13 994.656 293.223V148.7H978.641V293.223C978.641 295.13 977.312 296.673 975.672 296.673H949.891Z" fill="white"/>
<path d="M958.484 523.626V608.626H1043.48V523.626H958.484ZM922.234 507.376L860.176 565.461L861.562 566.942L863.018 568.355L922.234 507.376ZM905.75 441.923L987.358 465.694L987.741 464.38L988.081 463.055L905.75 441.923ZM912.859 425.855L987.718 466.119L987.959 465.67L988.195 465.218L912.859 425.855ZM921.453 407.971L843.241 374.686L842.837 375.635L842.456 376.594L921.453 407.971ZM927 390.904L1009.79 410.16L1009.95 409.473L1010.1 408.782L927 390.904ZM927.625 388.362L1007.37 417.775L1009.03 413.295L1010.17 408.658L927.625 388.362ZM922.391 342.971L999.513 307.234L998.707 305.496L997.825 303.797L922.391 342.971ZM932.781 296.673L981.582 366.268L986.664 362.705L991.174 358.441L932.781 296.673ZM972.703 289.864V374.864H1057.7V289.864H972.703ZM1000.52 289.864H915.516V374.864H1000.52V289.864ZM1040.67 296.764L988.829 364.124L990.372 365.311L991.966 366.426L1040.67 296.764ZM1049.97 345.241L979.853 297.192L974.979 304.304L971.632 312.25L1049.97 345.241ZM1045.05 362.126L961.993 344.042L961.342 347.031L960.908 350.058L1045.05 362.126ZM1045.13 388.09L960.798 398.762L961.747 406.262L964.005 413.476L1045.13 388.09ZM1045.44 389.088L1127.14 365.65L1126.86 364.673L1126.56 363.702L1045.44 389.088ZM1047.08 394.808L1128.26 369.611L1128.02 368.852L1127.77 368.098L1047.08 394.808ZM1051.92 407.88L1130 374.283L1129.83 373.88L1129.65 373.479L1051.92 407.88ZM1059.97 423.767L985.845 465.369L985.969 465.589L986.094 465.809L1059.97 423.767ZM1067.78 442.105L985.08 461.738L985.188 462.195L985.302 462.652L1067.78 442.105ZM1069.42 452.635L984.608 458.25L984.723 459.991L984.91 461.726L1069.42 452.635ZM1070.28 460.624L1155.2 464.372L1155.48 457.937L1154.79 451.533L1070.28 460.624ZM1051.3 507.285L1112.1 566.683L1112.11 566.673L1112.12 566.663L1051.3 507.285ZM1015.91 523.535V608.535H1017.43L1018.96 608.48L1015.91 523.535ZM958.484 523.535V438.535H873.484V523.535H958.484ZM936.062 302.301L984.787 371.95L989.466 368.677L993.666 364.806L936.062 302.301ZM927.391 339.703L1004.39 303.712L1003.63 302.085L1002.81 300.492L927.391 339.703ZM933.172 390.45L850.537 370.538L850.293 371.552L850.073 372.572L933.172 390.45ZM932.625 392.72L850.324 371.471L849.947 372.931L849.622 374.404L932.625 392.72ZM926.687 411.057L848.735 377.169L848.288 378.197L847.869 379.236L926.687 411.057ZM917.781 429.577L842.807 389.529L842.785 389.57L842.763 389.611L917.781 429.577ZM911.219 444.102L992.923 467.54L993.118 466.86L993.302 466.177L911.219 444.102ZM909.812 453.089H994.812V453.089L909.812 453.089ZM926.062 502.292L863.854 560.216L865.376 561.851L866.982 563.403L926.062 502.292ZM1015.52 516.817V601.817H1017.24L1018.96 601.748L1015.52 516.817ZM1047.16 502.202L986.265 442.896L986.213 442.948L986.162 443.001L1047.16 502.202ZM1064.19 460.896L1149.12 464.322L1149.37 458.159L1148.72 452.024L1064.19 460.896ZM1063.41 453.452H978.406V457.9L978.871 462.324L1063.41 453.452ZM1063.41 453.361H1148.41V450.139L1148.16 446.926L1063.41 453.361ZM1061.92 444.011L979.287 463.923L979.401 464.396L979.521 464.868L1061.92 444.011ZM1054.89 427.67L1128.92 385.896L1128.86 385.803L1128.81 385.711L1054.89 427.67ZM1046.53 411.057L968.125 443.883L968.141 443.921L968.157 443.959L1046.53 411.057ZM1041.45 397.168L1122.77 372.407L1122.73 372.301L1122.7 372.196L1041.45 397.168ZM1039.73 391.176L957.651 413.251L957.651 413.251L1039.73 391.176ZM1039.34 389.724L955.061 400.741L955.793 406.343L957.26 411.798L1039.34 389.724ZM1039.27 360.855L956.208 342.789L955.62 345.491L955.209 348.225L1039.27 360.855ZM1045.05 341.701L974.215 294.713L969.99 301.083L966.968 308.104L1045.05 341.701ZM1037.55 302.574L985.492 369.77L987.128 371.037L988.823 372.223L1037.55 302.574ZM994.656 148.7H1079.66V63.6997H994.656V148.7ZM978.641 148.7V63.6997H893.641V148.7H978.641ZM958.484 438.626C972.055 438.626 979.812 444.806 981.451 446.397L863.018 568.355C886.532 591.19 919.445 608.626 958.484 608.626V438.626ZM984.292 449.292C986.599 451.756 987.732 453.979 988.281 455.431C988.833 456.894 989.031 458.18 989.031 459.353H819.031C819.031 497.139 832.578 535.974 860.176 565.461L984.292 449.292ZM989.031 459.353V452.998H819.031V459.353H989.031ZM989.031 452.998C989.031 452.997 989.031 453.011 989.031 453.028C989.031 453.046 989.031 453.069 989.031 453.094C989.031 453.146 989.031 453.203 989.031 453.266C989.03 453.39 989.029 453.52 989.028 453.652C989.026 453.917 989.022 454.179 989.017 454.437C989.007 454.951 988.99 455.442 988.969 455.914C988.926 456.843 988.86 457.747 988.764 458.646C988.59 460.267 988.237 462.676 987.358 465.694L824.141 418.152C819.186 435.164 819.031 449.292 819.031 452.998H989.031ZM988.081 463.055C987.552 465.117 987.002 466.737 986.59 467.837C986.184 468.921 985.876 469.599 985.803 469.757C985.735 469.903 985.811 469.73 986.154 469.066C986.51 468.376 986.972 467.505 987.718 466.119L838.001 385.591C835.677 389.911 827.74 403.955 823.419 420.791L988.081 463.055ZM988.195 465.218C990.087 461.597 995.645 451.444 1000.45 439.348L842.456 376.594C842.145 377.377 841.706 378.37 840.965 379.862C840.582 380.632 840.141 381.494 839.567 382.594C839.278 383.149 838.981 383.714 838.634 384.374C838.306 384.998 837.913 385.746 837.523 386.492L988.195 465.218ZM999.665 441.255C1005.97 426.429 1008.54 415.54 1009.79 410.16L844.21 371.648C843.991 372.589 843.949 372.762 843.905 372.934C843.891 372.99 843.885 373.013 843.884 373.017C843.883 373.021 843.882 373.024 843.879 373.033C843.878 373.038 843.845 373.149 843.76 373.384C843.673 373.625 843.51 374.055 843.241 374.686L999.665 441.255ZM1010.1 408.782C1010.15 408.534 1010.2 408.314 1010.23 408.173C1010.27 407.999 1010.27 407.96 1010.28 407.914C1010.31 407.804 1010.23 408.174 1010.1 408.719C1009.97 409.273 1009.71 410.383 1009.31 411.807C1008.91 413.237 1008.28 415.309 1007.37 417.775L847.876 358.949C845.936 364.208 844.9 368.583 844.522 370.207C844.298 371.172 844.122 371.989 844.043 372.36C843.878 373.132 843.981 372.655 843.901 373.026L1010.1 408.782ZM1010.17 408.658C1014.26 391.99 1014.03 377.645 1014.03 374.019H844.031C844.031 375.798 844.007 375.182 844.075 374.231C844.154 373.132 844.378 370.937 845.083 368.067L1010.17 408.658ZM1014.03 374.019C1014.03 351.156 1009.34 328.446 999.513 307.234L845.268 378.709C844.769 377.632 844.439 376.594 844.245 375.689C844.052 374.792 844.031 374.204 844.031 374.019H1014.03ZM997.825 303.797C1000.92 309.747 1003.09 317.023 1003.09 325.905H833.094C833.094 346.225 838.397 365.665 846.956 382.146L997.825 303.797ZM1003.09 325.905C1003.09 340.129 996.627 355.719 981.582 366.268L883.981 227.078C850.81 250.337 833.094 288.259 833.094 325.905H1003.09ZM991.174 358.441C979.992 369.012 965.267 374.864 949.891 374.864V204.864C921.858 204.864 894.789 215.619 874.388 234.905L991.174 358.441ZM949.891 374.864H972.703V204.864H949.891V374.864ZM1057.7 289.864V145.341H887.703V289.864H1057.7ZM1057.7 145.341C1057.7 177.954 1032.5 226.891 975.672 226.891V56.8911C915.559 56.8911 887.703 108.915 887.703 145.341H1057.7ZM975.672 226.891H997.547V56.8911H975.672V226.891ZM997.547 226.891C940.716 226.891 915.516 177.955 915.516 145.341H1085.52C1085.52 108.914 1057.66 56.8911 997.547 56.8911V226.891ZM915.516 145.341V289.864H1085.52V145.341H915.516ZM1000.52 374.864H1022.63V204.864H1000.52V374.864ZM1022.63 374.864C1005.76 374.864 993.958 368.071 988.829 364.124L1092.51 229.404C1075.35 216.197 1051.68 204.864 1022.63 204.864V374.864ZM991.966 366.426C976.965 355.937 970.281 339.735 970.281 325.905H1140.28C1140.28 287.927 1122.82 250.481 1089.38 227.102L991.966 366.426ZM970.281 325.905C970.281 322.219 970.75 318.233 971.928 313.951C973.057 309.845 975.287 303.854 979.853 297.192L1120.08 393.29C1135.17 371.271 1140.28 346.418 1140.28 325.905H970.281ZM971.632 312.25C966.927 323.423 964.126 334.247 961.993 344.042L1128.1 380.21C1128.37 378.977 1128.58 378.06 1128.75 377.391C1128.92 376.724 1129.02 376.368 1129.05 376.253C1129.1 376.077 1128.88 376.875 1128.31 378.232L971.632 312.25ZM960.908 350.058C959.247 361.639 959.344 371.517 959.344 374.926H1129.34C1129.34 374.466 1129.34 374.134 1129.34 373.811C1129.35 373.502 1129.35 373.266 1129.35 373.072C1129.35 372.686 1129.36 372.531 1129.36 372.517C1129.36 372.504 1129.34 373.147 1129.19 374.194L960.908 350.058ZM959.344 374.926C959.344 378.735 959.345 387.28 960.798 398.762L1129.45 377.418C1129.38 376.842 1129.36 376.519 1129.36 376.394C1129.35 376.233 1129.34 376.102 1129.34 374.926H959.344ZM964.005 413.476L964.317 414.475L1126.56 363.702L1126.25 362.703L964.005 413.476ZM963.733 412.526C963.594 412.041 963.517 411.744 963.631 412.173C963.69 412.393 963.905 413.201 964.12 413.987C964.594 415.723 965.346 418.381 966.384 421.517L1127.77 368.098C1128.03 368.873 1128.16 369.353 1128.1 369.16C1128.05 368.982 1128.03 368.887 1127.87 368.276C1127.8 368.029 1127.7 367.658 1127.59 367.25C1127.48 366.839 1127.32 366.284 1127.14 365.65L963.733 412.526ZM965.898 420.004C968.632 428.811 971.52 436.239 974.194 442.281L1129.65 373.479C1129.51 373.166 1128.96 371.879 1128.26 369.611L965.898 420.004ZM973.843 441.477C978.847 453.104 983.517 461.221 985.845 465.369L1134.09 382.165C1132.68 379.653 1132.17 378.748 1131.57 377.598C1131.1 376.697 1130.6 375.681 1130 374.283L973.843 441.477ZM986.094 465.809C986.514 466.546 986.786 467.025 987.031 467.462C987.263 467.874 987.387 468.101 987.45 468.218C987.567 468.435 987.358 468.062 987.023 467.326C986.667 466.545 986.263 465.566 985.882 464.461C985.503 463.365 985.244 462.431 985.08 461.738L1150.48 422.471C1145.61 401.966 1137.54 388.218 1133.84 381.725L986.094 465.809ZM985.302 462.652C984.917 461.104 984.7 459.644 984.608 458.25L1154.24 447.021C1153.68 438.546 1152.36 430.004 1150.26 421.558L985.302 462.652ZM984.91 461.726L985.769 469.715L1154.79 451.533L1153.93 443.544L984.91 461.726ZM985.364 456.876C985.404 455.962 985.452 455.805 985.557 455.461C985.658 455.132 986.689 451.786 990.475 447.908L1112.12 566.663C1151.31 526.521 1154.65 476.72 1155.2 464.372L985.364 456.876ZM990.494 447.888C997.175 441.049 1006.13 438.832 1012.85 438.59L1018.96 608.48C1040.84 607.694 1079.17 600.393 1112.1 566.683L990.494 447.888ZM1015.91 438.535H958.484V608.535H1015.91V438.535ZM873.484 523.535V523.626H1043.48V523.535H873.484ZM949.891 211.673C912.703 211.673 888.089 230.922 878.459 239.797L993.666 364.806C988.567 369.505 973.641 381.673 949.891 381.673V211.673ZM887.338 232.653C856.187 254.445 838.875 289.841 838.875 325.995H1008.87C1008.87 343.449 1000.63 360.87 984.787 371.95L887.338 232.653ZM838.875 325.995C838.875 345.344 844.015 363.605 851.975 378.915L1002.81 300.492C1006.23 307.086 1008.87 315.544 1008.87 325.995H838.875ZM850.386 375.694C850.126 375.138 849.955 374.596 849.863 374.171C849.774 373.758 849.812 373.7 849.812 374.109H1019.81C1019.81 350.018 1014.87 326.121 1004.39 303.712L850.386 375.694ZM849.812 374.109C849.812 376.017 849.788 375.571 849.841 374.852C849.908 373.961 850.08 372.434 850.537 370.538L1015.81 410.362C1019.98 393.057 1019.81 378.681 1019.81 374.109H849.812ZM850.073 372.572C850.112 372.392 850.154 372.202 850.199 372.007C850.243 371.815 850.282 371.649 850.313 371.521C850.369 371.289 850.391 371.21 850.324 371.471L1014.93 413.968C1015.28 412.584 1015.76 410.685 1016.27 408.328L850.073 372.572ZM849.622 374.404C849.429 375.277 849.391 375.438 849.362 375.556C849.352 375.595 849.349 375.605 849.351 375.599C849.352 375.593 849.354 375.589 849.353 375.591C849.352 375.594 849.345 375.618 849.329 375.665C849.314 375.713 849.286 375.795 849.243 375.912C849.159 376.142 849 376.559 848.735 377.169L1004.64 444.946C1011.58 428.974 1014.31 416.997 1015.63 411.035L849.622 374.404ZM847.869 379.236C846.741 382.029 845.507 384.474 842.807 389.529L992.755 469.625C995.68 464.149 1000.7 454.792 1005.51 442.879L847.869 379.236ZM842.763 389.611C840.983 392.951 833.324 406.453 829.135 422.027L993.302 466.177C992.693 468.441 992.066 470.22 991.604 471.415C991.151 472.588 990.81 473.322 990.741 473.468C990.679 473.602 990.766 473.409 991.144 472.678C991.536 471.919 992.02 471.005 992.799 469.542L842.763 389.611ZM829.514 420.664C827.144 428.924 826.033 436.165 825.476 441.343C825.188 444.017 825.024 446.37 824.931 448.315C824.885 449.293 824.855 450.185 824.837 450.98C824.828 451.378 824.822 451.753 824.818 452.104C824.816 452.28 824.815 452.45 824.814 452.614C824.813 452.697 824.813 452.777 824.813 452.856C824.813 452.896 824.813 452.935 824.812 452.974C824.812 452.993 824.812 453.013 824.812 453.032C824.812 453.042 824.812 453.056 824.812 453.061C824.812 453.075 824.812 453.089 909.812 453.089C994.812 453.089 994.812 453.103 994.812 453.117C994.812 453.122 994.812 453.136 994.812 453.146C994.812 453.165 994.812 453.184 994.812 453.203C994.812 453.241 994.812 453.278 994.812 453.316C994.812 453.391 994.812 453.466 994.811 453.54C994.81 453.688 994.809 453.835 994.808 453.979C994.804 454.269 994.8 454.552 994.793 454.828C994.781 455.38 994.762 455.914 994.737 456.433C994.688 457.459 994.612 458.485 994.501 459.525C994.295 461.434 993.887 464.182 992.923 467.54L829.514 420.664ZM824.812 453.089V459.444H994.812V453.089H824.812ZM824.812 459.444C824.812 495.595 837.901 532.343 863.854 560.216L988.271 444.369C991.099 447.407 992.673 450.331 993.54 452.615C994.414 454.918 994.812 457.192 994.812 459.444H824.812ZM866.982 563.403C889.124 584.81 920.631 601.817 958.484 601.817V431.817C973.525 431.817 982.532 438.658 985.143 441.182L866.982 563.403ZM958.484 601.817H1015.52V431.817H958.484V601.817ZM1018.96 601.748C1039.55 600.913 1076.52 593.991 1108.15 561.402L986.162 443.001C994.355 434.56 1004.92 432.177 1012.07 431.887L1018.96 601.748ZM1108.05 561.508C1145.19 523.377 1148.63 476.428 1149.12 464.322L979.257 457.47C979.348 455.201 979.559 454.083 979.916 452.929C980.278 451.757 981.746 447.535 986.265 442.896L1108.05 561.508ZM1148.72 452.024L1147.94 444.58L978.871 462.324L979.652 469.768L1148.72 452.024ZM1148.41 453.452V453.361H978.406V453.452H1148.41ZM1148.16 446.926C1147.62 439.823 1146.49 431.731 1144.32 423.154L979.521 464.868C978.912 462.464 978.721 460.727 978.65 459.797L1148.16 446.926ZM1144.56 424.099C1139.91 404.817 1132.31 391.909 1128.92 385.896L980.864 469.445C981.753 471.019 982.028 471.513 982.218 471.866C982.33 472.075 982.066 471.596 981.659 470.707C981.223 469.752 980.73 468.562 980.263 467.216C979.802 465.885 979.487 464.753 979.287 463.923L1144.56 424.099ZM1128.81 385.711C1127.47 383.343 1126.95 382.429 1126.41 381.385C1125.97 380.537 1125.49 379.544 1124.91 378.156L968.157 443.959C973.375 456.389 978.351 465.018 980.969 469.63L1128.81 385.711ZM1124.94 378.232C1123.99 375.958 1123.35 374.333 1122.77 372.407L960.14 421.929C963.147 431.805 966.265 439.439 968.125 443.883L1124.94 378.232ZM1122.7 372.196C1122.34 371.008 1122.08 370.085 1121.82 369.101L957.651 413.251C958.168 415.173 959.007 418.244 960.204 422.14L1122.7 372.196ZM1121.82 369.102L1121.43 367.649L957.26 411.798L957.651 413.251L1121.82 369.102ZM1123.63 378.706C1123.47 377.545 1123.44 376.885 1123.42 376.639C1123.41 376.383 1123.41 376.222 1123.41 375.017H953.406C953.406 379.365 953.431 388.271 955.061 400.741L1123.63 378.706ZM1123.41 375.017C1123.41 374.521 1123.41 374.171 1123.41 373.832C1123.41 373.51 1123.41 373.27 1123.41 373.077C1123.42 372.698 1123.42 372.549 1123.42 372.534C1123.43 372.527 1123.42 372.636 1123.4 372.825C1123.39 373.015 1123.36 373.241 1123.32 373.486L955.209 348.225C953.328 360.743 953.406 370.892 953.406 375.017H1123.41ZM1122.32 378.921C1122.92 376.181 1123.24 375.053 1123.33 374.773C1123.36 374.663 1123.35 374.723 1123.28 374.894C1123.22 375.069 1123.16 375.218 1123.13 375.297L966.968 308.104C961.764 320.2 958.708 331.296 956.208 342.789L1122.32 378.921ZM1115.88 388.688C1129.43 368.254 1134.42 345.833 1134.42 325.995H964.422C964.422 317.959 966.441 306.432 974.215 294.713L1115.88 388.688ZM1134.42 325.995C1134.42 289.759 1117.72 254.924 1086.27 232.925L988.823 372.223C981.607 367.175 975.101 360.027 970.572 351.112C966.077 342.261 964.422 333.444 964.422 325.995H1134.42ZM1089.6 235.378C1074.26 223.494 1051.59 211.673 1022.63 211.673V381.673C1003.5 381.673 990.52 373.664 985.492 369.77L1089.6 235.378ZM1022.63 211.673H997.625V381.673H1022.63V211.673ZM997.625 211.673C1054.46 211.673 1079.66 260.61 1079.66 293.223H909.656C909.656 329.65 937.512 381.673 997.625 381.673V211.673ZM1079.66 293.223V148.7H909.656V293.223H1079.66ZM994.656 63.6997H978.641V233.7H994.656V63.6997ZM893.641 148.7V293.223H1063.64V148.7H893.641ZM893.641 293.223C893.641 260.61 918.84 211.673 975.672 211.673V381.673C1035.78 381.673 1063.64 329.65 1063.64 293.223H893.641ZM975.672 211.673H949.891V381.673H975.672V211.673Z" fill="white" mask="url(#path-2-inside-1_0_1)"/>
<mask id="path-4-inside-2_0_1" fill="white">
<path d="M997.547 364.759H975.672C974.032 364.759 972.703 363.216 972.703 361.309V145.25C972.703 143.344 974.032 141.8 975.672 141.8H997.547C999.188 141.8 1000.52 143.344 1000.52 145.25V361.309C1000.44 363.216 999.188 364.759 997.547 364.759ZM978.563 357.951H994.578V148.7H978.563V357.951ZM996.766 137.987H977.235C975.516 137.987 974.188 136.444 974.188 134.447V130.816C973.719 128.365 971.532 123.644 964.422 119.65C963.25 118.923 962.313 117.289 962.469 115.837C963.641 106.759 964.578 97.4991 965.594 88.2394C966.61 78.8889 967.547 69.5384 968.719 60.4603C968.953 58.7354 970.203 57.4645 971.766 57.4645H1003.02C1004.58 57.4645 1005.91 58.8262 1006.06 60.6419C1006.84 69.72 1007.78 78.9797 1008.8 88.2394C1009.81 97.5898 1010.75 106.94 1011.53 116.018C1011.69 117.471 1010.98 118.923 1009.89 119.559L1009.66 119.74C1002.55 123.826 1000.36 128.455 999.813 131.633L999.891 134.538C999.813 136.353 998.407 137.987 996.766 137.987ZM980.203 130.907L993.641 130.816C994.5 125.732 997.078 119.468 1005.13 114.294C1004.42 106.032 1003.48 97.4991 1002.63 89.0564C1001.84 80.7953 1000.98 72.5342 1000.28 64.4547H974.422C973.407 72.5342 972.547 80.7953 971.688 89.0564C970.828 97.5898 969.891 106.032 968.875 114.384C976.922 119.65 979.5 125.732 980.282 130.18L980.203 130.907ZM986.61 426.49C973.797 426.49 963.328 414.416 963.328 399.438C963.328 384.459 973.719 372.475 986.61 372.475C999.5 372.475 1009.81 384.549 1009.81 399.438C1009.81 414.326 999.422 426.49 986.61 426.49ZM986.61 379.284C977 379.284 969.188 388.362 969.188 399.438C969.188 410.604 977 419.682 986.61 419.682C996.219 419.682 1003.95 410.604 1003.95 399.438C1003.95 388.362 996.219 379.284 986.61 379.284ZM1016.69 464.437H957.313V448.096H1016.69V464.437ZM961.219 459.898H1012.78V452.635H961.219V459.898Z"/>
</mask>
<path d="M997.547 364.759H975.672C974.032 364.759 972.703 363.216 972.703 361.309V145.25C972.703 143.344 974.032 141.8 975.672 141.8H997.547C999.188 141.8 1000.52 143.344 1000.52 145.25V361.309C1000.44 363.216 999.188 364.759 997.547 364.759ZM978.563 357.951H994.578V148.7H978.563V357.951ZM996.766 137.987H977.235C975.516 137.987 974.188 136.444 974.188 134.447V130.816C973.719 128.365 971.532 123.644 964.422 119.65C963.25 118.923 962.313 117.289 962.469 115.837C963.641 106.759 964.578 97.4991 965.594 88.2394C966.61 78.8889 967.547 69.5384 968.719 60.4603C968.953 58.7354 970.203 57.4645 971.766 57.4645H1003.02C1004.58 57.4645 1005.91 58.8262 1006.06 60.6419C1006.84 69.72 1007.78 78.9797 1008.8 88.2394C1009.81 97.5898 1010.75 106.94 1011.53 116.018C1011.69 117.471 1010.98 118.923 1009.89 119.559L1009.66 119.74C1002.55 123.826 1000.36 128.455 999.813 131.633L999.891 134.538C999.813 136.353 998.407 137.987 996.766 137.987ZM980.203 130.907L993.641 130.816C994.5 125.732 997.078 119.468 1005.13 114.294C1004.42 106.032 1003.48 97.4991 1002.63 89.0564C1001.84 80.7953 1000.98 72.5342 1000.28 64.4547H974.422C973.407 72.5342 972.547 80.7953 971.688 89.0564C970.828 97.5898 969.891 106.032 968.875 114.384C976.922 119.65 979.5 125.732 980.282 130.18L980.203 130.907ZM986.61 426.49C973.797 426.49 963.328 414.416 963.328 399.438C963.328 384.459 973.719 372.475 986.61 372.475C999.5 372.475 1009.81 384.549 1009.81 399.438C1009.81 414.326 999.422 426.49 986.61 426.49ZM986.61 379.284C977 379.284 969.188 388.362 969.188 399.438C969.188 410.604 977 419.682 986.61 419.682C996.219 419.682 1003.95 410.604 1003.95 399.438C1003.95 388.362 996.219 379.284 986.61 379.284ZM1016.69 464.437H957.313V448.096H1016.69V464.437ZM961.219 459.898H1012.78V452.635H961.219V459.898Z" fill="white"/>
<path d="M1000.52 361.309L1145.39 367.247L1145.52 364.279V361.309H1000.52ZM978.563 357.951H833.563V502.951H978.563V357.951ZM994.578 357.951V502.951H1139.58V357.951H994.578ZM994.578 148.7H1139.58V3.69968H994.578V148.7ZM978.563 148.7V3.69968H833.563V148.7H978.563ZM974.188 130.816H1119.19V117.075L1116.61 103.579L974.188 130.816ZM964.422 119.65L888.04 242.9L890.684 244.539L893.397 246.063L964.422 119.65ZM962.469 115.837L818.662 97.2731L818.465 98.7988L818.301 100.328L962.469 115.837ZM965.594 88.2394L1109.73 104.049L1109.74 103.973L1109.75 103.897L965.594 88.2394ZM968.719 60.4603L825.039 40.9368L824.974 41.4165L824.912 41.8966L968.719 60.4603ZM1006.06 60.6419L861.597 73.0744L1006.06 60.6419ZM1008.8 88.2394L1152.95 72.5819L1152.94 72.506L1152.93 72.4302L1008.8 88.2394ZM1011.53 116.018L867.066 128.451L867.198 129.991L867.363 131.527L1011.53 116.018ZM1009.89 119.559L937.048 -5.81622L928.712 -0.973148L921.091 4.93084L1009.89 119.559ZM1009.66 119.74L1081.9 245.463L1090.56 240.486L1098.46 234.369L1009.66 119.74ZM999.813 131.633L856.914 107.037L854.479 121.183L854.865 135.532L999.813 131.633ZM999.891 134.538L1144.76 140.771L1144.97 135.706L1144.84 130.639L999.891 134.538ZM980.203 130.907L836.035 115.398L818.651 277.001L981.183 275.903L980.203 130.907ZM993.641 130.816L994.62 275.812L1116.33 274.99L1136.61 154.984L993.641 130.816ZM1005.13 114.294L1083.55 236.254L1157.01 189.017L1149.6 101.997L1005.13 114.294ZM1002.63 89.0564L858.269 102.708L858.318 103.224L858.371 103.74L1002.63 89.0564ZM1000.28 64.4547L1144.74 51.8835L1133.21 -80.5453H1000.28V64.4547ZM974.422 64.4547V-80.5453H846.508L830.554 46.37L974.422 64.4547ZM971.688 89.0564L827.466 74.0535L827.441 74.2904L827.418 74.5274L971.688 89.0564ZM968.875 114.384L824.936 96.8806L814.054 186.363L889.483 235.718L968.875 114.384ZM980.282 130.18L1124.45 145.689L1126.64 125.298L1123.1 105.098L980.282 130.18ZM1016.69 464.437V609.437H1161.69V464.437H1016.69ZM957.313 464.437H812.313V609.437H957.313V464.437ZM957.313 448.096V303.096H812.313V448.096H957.313ZM1016.69 448.096H1161.69V303.096H1016.69V448.096ZM961.219 459.898H816.219V604.898H961.219V459.898ZM1012.78 459.898V604.898H1157.78V459.898H1012.78ZM1012.78 452.635H1157.78V307.635H1012.78V452.635ZM961.219 452.635V307.635H816.219V452.635H961.219ZM997.547 219.759H975.672V509.759H997.547V219.759ZM975.672 219.759C1073.78 219.759 1117.7 304.328 1117.7 361.309H827.703C827.703 422.104 874.286 509.759 975.672 509.759V219.759ZM1117.7 361.309V145.25H827.703V361.309H1117.7ZM1117.7 145.25C1117.7 202.23 1073.78 286.8 975.672 286.8V-3.19969C874.284 -3.19969 827.703 84.4568 827.703 145.25H1117.7ZM975.672 286.8H997.547V-3.19969H975.672V286.8ZM997.547 286.8C899.442 286.8 855.516 202.231 855.516 145.25H1145.52C1145.52 84.4558 1098.93 -3.19969 997.547 -3.19969V286.8ZM855.516 145.25V361.309H1145.52V145.25H855.516ZM855.638 355.372C857.539 308.971 895.028 219.759 997.547 219.759V509.759C1103.35 509.759 1143.34 417.461 1145.39 367.247L855.638 355.372ZM978.563 502.951H994.578V212.951H978.563V502.951ZM1139.58 357.951V148.7H849.578V357.951H1139.58ZM994.578 3.69968H978.563V293.7H994.578V3.69968ZM833.563 148.7V357.951H1123.56V148.7H833.563ZM996.766 -7.0125H977.235V282.987H996.766V-7.0125ZM977.235 -7.0125C1075.26 -7.0125 1119.19 77.5569 1119.19 134.447H829.188C829.188 195.331 875.769 282.987 977.235 282.987V-7.0125ZM1119.19 134.447V130.816H829.188V134.447H1119.19ZM1116.61 103.579C1107.29 54.8477 1075.79 15.9037 1035.45 -6.76411L893.397 246.063C867.271 231.384 840.151 201.882 831.769 158.052L1116.61 103.579ZM1040.8 -3.60098C1065.17 11.5016 1081.21 31.5397 1091.03 50.0436C1100.83 68.5157 1110.36 96.7773 1106.64 131.346L818.301 100.328C814.426 136.349 824.341 166.154 834.866 185.988C845.409 205.853 862.498 227.072 888.04 242.9L1040.8 -3.60098ZM1106.28 134.401C1107.68 123.491 1108.89 111.672 1109.73 104.049L821.458 72.4302C820.263 83.3261 819.598 90.0264 818.662 97.2731L1106.28 134.401ZM1109.75 103.897C1110.94 92.9032 1111.6 86.1728 1112.53 79.024L824.912 41.8966C823.491 52.904 822.279 64.8745 821.442 72.5819L1109.75 103.897ZM1112.4 79.9838C1105.16 133.27 1058.56 202.465 971.766 202.465V-87.5355C881.851 -87.5355 832.749 -15.799 825.039 40.9368L1112.4 79.9838ZM971.766 202.465H1003.02V-87.5355H971.766V202.465ZM1003.02 202.465C913.772 202.465 866.469 129.686 861.597 73.0744L1150.53 48.2093C1145.34 -12.0332 1095.38 -87.5355 1003.02 -87.5355V202.465ZM861.597 73.0744C862.502 83.5914 863.562 94.0264 864.662 104.049L1152.93 72.4302C1152 63.9329 1151.19 55.8485 1150.53 48.2093L861.597 73.0744ZM864.645 103.897C865.579 112.493 866.401 120.727 867.066 128.451L1156 103.586C1155.1 93.1534 1154.05 82.687 1152.95 72.5819L864.645 103.897ZM867.363 131.527C864.461 104.543 869.501 78.6805 879.922 56.4814C890.142 34.7081 908.268 10.9047 937.048 -5.81622L1082.73 244.934C1139.13 212.168 1161.23 151.907 1155.7 100.51L867.363 131.527ZM921.091 4.93084L920.857 5.1124L1098.46 234.369L1098.69 234.187L921.091 4.93084ZM937.415 -5.98189C896.568 17.4891 865.477 57.284 856.914 107.037L1142.71 156.228C1139.4 175.482 1131.75 194.544 1119.49 211.382C1107.4 227.99 1093.47 238.813 1081.9 245.463L937.415 -5.98189ZM854.865 135.532L854.943 138.437L1144.84 130.639L1144.76 127.734L854.865 135.532ZM855.025 128.304C856.473 94.664 869.764 63.9202 890.671 40.4635C911.492 17.1044 947.847 -7.0125 996.766 -7.0125V282.987C1096.29 282.987 1142.28 198.222 1144.76 140.771L855.025 128.304ZM981.183 275.903L994.62 275.812L992.661 -14.1809L979.224 -14.0901L981.183 275.903ZM1136.61 154.984C1134.65 166.615 1130.18 182.385 1120.08 198.741C1109.79 215.415 1096.65 227.833 1083.55 236.254L926.699 -7.66673C879.111 22.9344 857.219 67.9021 850.669 106.647L1136.61 154.984ZM1149.6 101.997C1148.76 92.1432 1147.58 81.2255 1146.88 74.3727L858.371 103.74C859.392 113.773 860.08 119.922 860.648 126.59L1149.6 101.997ZM1146.98 75.4047C1146.01 65.1052 1145.39 59.4549 1144.74 51.8835L855.828 77.0259C856.575 85.6135 857.681 96.4854 858.269 102.708L1146.98 75.4047ZM1000.28 -80.5453H974.422V209.455H1000.28V-80.5453ZM830.554 46.37C829.312 56.2526 828.296 66.0726 827.466 74.0535L1115.91 104.059C1116.8 95.518 1117.5 88.8158 1118.29 82.5394L830.554 46.37ZM827.418 74.5274C826.656 82.0872 825.829 89.5381 824.936 96.8806L1112.81 131.888C1113.95 122.527 1115 113.092 1115.96 103.585L827.418 74.5274ZM889.483 235.718C877.572 227.924 865.185 216.413 855.129 200.681C845.142 185.057 839.899 169.11 837.467 155.263L1123.1 105.098C1115.9 64.1071 1092.26 21.8331 1048.27 -6.94937L889.483 235.718ZM836.113 114.671L836.035 115.398L1124.37 146.416L1124.45 145.689L836.113 114.671ZM986.61 281.49C1073.25 281.49 1108.33 355.194 1108.33 399.438H818.328C818.328 473.639 874.34 571.49 986.61 571.49V281.49ZM1108.33 399.438C1108.33 444.019 1072.88 517.475 986.61 517.475V227.475C874.553 227.475 818.328 324.898 818.328 399.438H1108.33ZM986.61 517.475C899.463 517.475 864.813 443.099 864.813 399.438H1154.81C1154.81 326 1099.54 227.475 986.61 227.475V517.475ZM864.813 399.438C864.813 356.112 899.098 281.49 986.61 281.49V571.49C1099.75 571.49 1154.81 472.54 1154.81 399.438H864.813ZM986.61 234.284C877.641 234.284 824.188 329.026 824.188 399.438H1114.19C1114.19 447.699 1076.36 524.284 986.61 524.284V234.284ZM824.188 399.438C824.188 469.491 877.253 564.682 986.61 564.682V274.682C1076.75 274.682 1114.19 351.717 1114.19 399.438H824.188ZM986.61 564.682C1096.74 564.682 1148.95 468.59 1148.95 399.438H858.953C858.953 352.618 895.699 274.682 986.61 274.682V564.682ZM1148.95 399.438C1148.95 329.926 1096.35 234.284 986.61 234.284V524.284C896.085 524.284 858.953 446.798 858.953 399.438H1148.95ZM1016.69 319.437H957.313V609.437H1016.69V319.437ZM1102.31 464.437V448.096H812.313V464.437H1102.31ZM957.313 593.096H1016.69V303.096H957.313V593.096ZM871.688 448.096V464.437H1161.69V448.096H871.688ZM961.219 604.898H1012.78V314.898H961.219V604.898ZM1157.78 459.898V452.635H867.782V459.898H1157.78ZM1012.78 307.635H961.219V597.635H1012.78V307.635ZM816.219 452.635V459.898H1106.22V452.635H816.219Z" fill="white" mask="url(#path-4-inside-2_0_1)"/>
<path d="M1048.5 399.5L1044 386H1049L1048.5 399.5Z" fill="white"/>
<line x1="963.129" y1="112.945" x2="775.129" y2="399.945" stroke="white" stroke-width="29"/>
<path d="M967.5 78.5L965.517 115.453L948 109.5L967.5 78.5Z" fill="white"/>
<path d="M924.009 401.5L922.012 386L928.134 386L927.5 390.5L924.009 401.5Z" fill="white"/>
<path d="M767.5 385L778 398L774 415H748L767.5 385Z" fill="white"/>
<path d="M924 400.5H766.999" stroke="white" stroke-width="29"/>
<path d="M1119 400.5H1048.5" stroke="white" stroke-width="29"/>
<path d="M113.568 191.818V220.227H0.5V191.818H113.568ZM33.4545 139.545H66.9773V347.5C66.9773 356.97 68.3504 364.072 71.0966 368.807C73.9375 373.447 77.536 376.572 81.892 378.182C86.3428 379.697 91.0303 380.455 95.9545 380.455C99.6477 380.455 102.678 380.265 105.045 379.886C107.413 379.413 109.307 379.034 110.727 378.75L117.545 408.864C115.273 409.716 112.1 410.568 108.028 411.42C103.956 412.367 98.7955 412.841 92.5455 412.841C83.0758 412.841 73.7955 410.805 64.7045 406.733C55.7083 402.661 48.2273 396.458 42.2614 388.125C36.3902 379.792 33.4545 369.28 33.4545 356.591V139.545ZM292.199 415.114C278.373 415.114 265.826 412.509 254.557 407.301C243.288 401.998 234.339 394.375 227.71 384.432C221.081 374.394 217.767 362.273 217.767 348.068C217.767 335.568 220.229 325.436 225.153 317.67C230.078 309.811 236.659 303.655 244.898 299.205C253.136 294.754 262.227 291.439 272.17 289.261C282.208 286.989 292.294 285.189 302.426 283.864C315.684 282.159 326.432 280.881 334.67 280.028C343.004 279.081 349.064 277.519 352.852 275.341C356.735 273.163 358.676 269.375 358.676 263.977V262.841C358.676 248.826 354.841 237.936 347.17 230.17C339.595 222.405 328.089 218.523 312.653 218.523C296.65 218.523 284.102 222.027 275.011 229.034C265.92 236.042 259.528 243.523 255.835 251.477L224.017 240.114C229.699 226.856 237.275 216.534 246.744 209.148C256.309 201.667 266.725 196.458 277.994 193.523C289.358 190.492 300.532 188.977 311.517 188.977C318.525 188.977 326.574 189.83 335.665 191.534C344.85 193.144 353.705 196.506 362.227 201.619C370.845 206.733 377.994 214.451 383.676 224.773C389.358 235.095 392.199 248.92 392.199 266.25V410H358.676V380.455H356.972C354.699 385.189 350.911 390.256 345.608 395.653C340.305 401.051 333.25 405.644 324.443 409.432C315.636 413.22 304.888 415.114 292.199 415.114ZM297.312 385C310.57 385 321.744 382.396 330.835 377.188C340.021 371.979 346.934 365.256 351.574 357.017C356.309 348.778 358.676 340.114 358.676 331.023V300.341C357.256 302.045 354.131 303.608 349.301 305.028C344.566 306.354 339.074 307.538 332.824 308.58C326.669 309.527 320.655 310.379 314.784 311.136C309.008 311.799 304.32 312.367 300.722 312.841C292.009 313.977 283.866 315.824 276.29 318.381C268.809 320.843 262.748 324.583 258.108 329.602C253.563 334.527 251.29 341.25 251.29 349.773C251.29 361.42 255.598 370.227 264.216 376.193C272.928 382.064 283.96 385 297.312 385ZM521.93 410V119.091H555.453V226.477H558.294C560.756 222.689 564.165 217.86 568.521 211.989C572.972 206.023 579.317 200.72 587.555 196.08C595.889 191.345 607.158 188.977 621.362 188.977C639.733 188.977 655.927 193.57 669.942 202.756C683.957 211.941 694.894 224.962 702.754 241.818C710.614 258.674 714.544 278.561 714.544 301.477C714.544 324.583 710.614 344.612 702.754 361.562C694.894 378.419 684.004 391.487 670.084 400.767C656.163 409.953 640.112 414.545 621.93 414.545C607.915 414.545 596.694 412.225 588.266 407.585C579.838 402.85 573.351 397.5 568.805 391.534C564.26 385.473 560.756 380.455 558.294 376.477H554.317V410H521.93ZM554.885 300.909C554.885 317.386 557.3 331.922 562.129 344.517C566.959 357.017 574.014 366.818 583.294 373.92C592.574 380.928 603.938 384.432 617.385 384.432C631.4 384.432 643.095 380.739 652.47 373.352C661.94 365.871 669.042 355.833 673.777 343.239C678.607 330.549 681.021 316.439 681.021 300.909C681.021 285.568 678.654 271.742 673.919 259.432C669.279 247.027 662.224 237.225 652.754 230.028C643.379 222.737 631.589 219.091 617.385 219.091C603.749 219.091 592.29 222.547 583.01 229.46C573.73 236.278 566.722 245.843 561.987 258.153C557.252 270.369 554.885 284.621 554.885 300.909Z" fill="white"/>
</svg>
